<?xml version="1.0" encoding="UTF-8"?>
<!DOCTYPE svg PUBLIC "-//W3C//DTD SVG 1.1//EN" "http://www.w3.org/Graphics/SVG/1.1/DTD/svg11.dtd">
<!-- Creator: CorelDRAW 2020 (64-Bit) -->
<svg xmlns="http://www.w3.org/2000/svg" xml:space="preserve" width="1.04906in" height="0.509717in" version="1.1" style="shape-rendering:geometricPrecision; text-rendering:geometricPrecision; image-rendering:optimizeQuality; fill-rule:evenodd; clip-rule:evenodd"
viewBox="0 0 1049.06 509.72"
 xmlns:xlink="http://www.w3.org/1999/xlink"
 xmlns:xodm="http://www.corel.com/coreldraw/odm/2003">
 <defs>
  <style type="text/css">
   <![CDATA[
    .fil0 {fill:#2C7B82;fill-rule:nonzero}
   ]]>
  </style>
 </defs>
 <g id="Layer_x0020_1">
  <metadata id="CorelCorpID_0Corel-Layer"/>
  <path class="fil0" d="M1042.65 318.35l-131.57 0.04c-2.61,-0.22 -5.1,-0.67 -7.5,-1.41 -3.4,-1.04 -6.5,-2.54 -9.32,-4.49 -2.81,-1.94 -5.18,-4.28 -7.1,-7 -1.93,-2.72 -3.33,-5.71 -4.22,-8.98l114.11 0c6.8,0 13.24,-1.2 19.31,-3.6 6.07,-2.41 11.37,-5.69 15.91,-9.87 4.54,-4.17 8.12,-9.04 10.73,-14.61 2.61,-5.58 3.92,-11.54 3.92,-17.89 0,-6.25 -1.3,-12.17 -3.92,-17.74 -2.61,-5.58 -6.19,-10.45 -10.73,-14.62 -4.54,-4.17 -9.84,-7.46 -15.91,-9.86 -6.07,-2.4 -12.51,-3.6 -19.31,-3.6l-82.59 0c-6.91,0 -13.4,1.2 -19.46,3.6 -6.07,2.4 -11.35,5.69 -15.84,9.86 -4.49,4.17 -8.04,9.04 -10.65,14.62 -2.61,5.57 -3.93,11.49 -3.93,17.74l0 16.32 17.32 0 0 -16.32c0,-4.08 0.84,-7.93 2.52,-11.56 1.67,-3.63 3.99,-6.8 6.96,-9.52 2.95,-2.72 6.41,-4.85 10.36,-6.39 3.94,-1.54 8.19,-2.31 12.72,-2.31l82.59 0c4.44,0 8.63,0.77 12.58,2.31 3.94,1.54 7.39,3.67 10.36,6.39 2.95,2.72 5.27,5.89 6.95,9.52 1.69,3.62 2.52,7.48 2.52,11.56 0,4.17 -0.83,8.07 -2.52,11.7 -1.68,3.63 -4,6.8 -6.95,9.52 -2.97,2.72 -6.42,4.87 -10.36,6.46 -3.95,1.59 -8.14,2.37 -12.58,2.37l-132.46 0 0 8.02c0,6.26 1.31,12.18 3.93,17.75 2.09,4.47 4.82,8.46 8.12,12.02l-40.43 0.02c3.33,-3.57 6.08,-7.57 8.18,-12.04 2.61,-5.57 3.92,-11.54 3.92,-17.89l0 -26.79 -165.02 0 0 -11.15c0,-4.08 0.86,-7.93 2.59,-11.56 1.72,-3.63 4.07,-6.8 7.03,-9.52 2.96,-2.72 6.41,-4.85 10.36,-6.39 3.94,-1.54 8.19,-2.31 12.72,-2.31l82.43 0c4.54,0 8.79,0.77 12.73,2.31 3.94,1.54 7.4,3.67 10.36,6.39 2.96,2.72 5.28,5.89 6.96,9.52 1.68,3.62 2.52,7.48 2.52,11.56l17.31 0c0,-6.34 -1.31,-12.28 -3.92,-17.81 -2.61,-5.54 -6.19,-10.38 -10.73,-14.56 -4.54,-4.17 -9.82,-7.46 -15.83,-9.86 -6.02,-2.4 -12.48,-3.6 -19.39,-3.6l-82.43 0c-6.91,0 -13.39,1.2 -19.46,3.6 -6.06,2.4 -11.34,5.69 -15.83,9.86 -4.49,4.17 -8.04,9.02 -10.65,14.56 -2.61,5.53 -3.93,11.47 -3.93,17.81l0 26.93 164.87 0 0 11.01c0,4.17 -0.84,8.07 -2.52,11.7 -1.67,3.62 -4,6.8 -6.96,9.52 -2.96,2.72 -6.41,4.87 -10.36,6.46 -3.18,1.28 -6.56,2.02 -10.12,2.26l-86.94 0.04c-3.82,-0.2 -7.44,-0.94 -10.83,-2.3 -3.95,-1.59 -7.41,-3.74 -10.36,-6.46 -2.96,-2.72 -5.31,-5.9 -7.03,-9.52 -1.72,-3.63 -2.59,-7.53 -2.59,-11.7l-17.17 0c0,6.35 1.31,12.31 3.93,17.89 2.11,4.5 4.86,8.51 8.19,12.1l-23.68 0c-0.46,-0.04 -0.88,-0.08 -1.19,-0.14l-0.33 -0.06c-0.89,-0.15 -1.99,-0.35 -3.19,-2.24 -3.78,-5.98 -8.85,-23.23 -9.18,-24.56 -1.75,-7.04 -3.47,-14.08 -5.18,-21.12 -1.75,-7.2 -3.5,-14.39 -5.3,-21.58 -1.26,-5.1 -2.58,-10.2 -3.9,-15.29 -1.53,-5.94 -3.06,-11.88 -4.52,-17.84 -1.9,-7.72 -3.75,-15.45 -5.6,-23.18 -2.48,-10.31 -4.95,-20.63 -7.52,-30.93 -1.23,-4.94 -5.57,-7.96 -10.91,-7.63 -5.85,0.33 -9.33,3.54 -9.8,9.05 -0.76,9 -1.65,18.15 -2.51,27 -0.65,6.65 -1.29,13.31 -1.9,19.97 -0.85,9.51 -1.66,19.03 -2.46,28.55 -0.89,10.34 -1.76,20.68 -2.7,31.02l-0.72 7.98c-2.15,23.77 -4.37,48.34 -6.82,72.48 -0.88,8.75 -1.6,17.64 -2.29,26.24 -0.7,8.7 -1.43,17.69 -2.33,26.52 -1.13,11.13 -2.14,22.44 -3.12,33.38 -0.56,6.25 -1.12,12.5 -1.7,18.75 -0.22,2.28 -0.43,4.55 -0.65,6.82 -1.19,-16.02 -2.43,-32.02 -3.67,-48.04 -1.11,-14.25 -2.21,-28.5 -3.28,-42.75 -0.89,-11.91 -1.72,-23.82 -2.55,-35.73 -0.83,-11.86 -1.66,-23.72 -2.54,-35.57 -1.21,-16.22 -2.47,-32.44 -3.73,-48.65 -1.29,-16.55 -2.57,-33.09 -3.81,-49.65 -0.97,-13 -1.87,-26.02 -2.78,-39.04 -0.74,-10.75 -1.5,-21.5 -2.28,-32.25 -1.99,-27.18 -4.05,-54.36 -6.11,-81.54 -0.98,-12.91 -1.95,-25.55 -3.06,-38.22 -0.42,-4.75 -3.94,-7.89 -9.44,-8.37 -5.72,-0.51 -10.04,2.16 -11.04,6.8 -2.1,9.81 -3.92,19.83 -5.68,29.52l-0.74 4.08c-1.22,6.66 -2.39,13.32 -3.57,19.98 -1.26,7.15 -2.53,14.29 -3.84,21.42 -1.35,7.44 -2.76,14.86 -4.16,22.29 -1.41,7.43 -2.81,14.87 -4.17,22.31 -1.35,7.37 -2.65,14.74 -3.96,22.11 -1.14,6.43 -2.28,12.86 -3.44,19.28 -0.84,4.62 -1.72,9.24 -2.6,13.85 -0.9,4.72 -1.8,9.45 -2.67,14.18 -2.01,11.06 -3.98,22.13 -6.03,33.64l-1.13 6.38c-1.64,-5.06 -3.24,-10.11 -4.86,-15.17l-1.72 -5.39c-2.68,-8.39 -8.09,-12.07 -17.65,-12 -2.44,-0 -4.87,0.01 -7.32,0.01l-351.35 0c-0.57,0 -1.11,0.1 -1.64,0.24 -5.94,0.27 -11.59,1.4 -16.89,3.5 -6.07,2.41 -11.35,5.69 -15.84,9.86 -4.49,4.17 -8.04,9.02 -10.65,14.55 -2.61,5.53 -3.93,11.47 -3.93,17.82l0 26.93 164.87 0 0 11.02c0,4.17 -0.84,8.07 -2.52,11.7 -1.68,3.62 -4,6.79 -6.96,9.51 -2.96,2.72 -6.41,4.87 -10.36,6.46 -3.94,1.59 -8.19,2.38 -12.73,2.38l-82.44 0c-4.54,0 -8.78,-0.8 -12.72,-2.38 -3.94,-1.59 -7.4,-3.74 -10.36,-6.46 -2.96,-2.72 -5.3,-5.89 -7.03,-9.51 -1.73,-3.63 -2.59,-7.53 -2.59,-11.7l-17.17 0c0,6.34 1.31,12.3 3.93,17.88 2.61,5.57 6.17,10.44 10.65,14.62 4.48,4.17 9.77,7.46 15.84,9.86 6.06,2.41 12.55,3.6 19.46,3.6l82.44 0c6.91,0 13.37,-1.2 19.39,-3.6 6.02,-2.4 11.3,-5.69 15.84,-9.86 4.54,-4.17 8.12,-9.04 10.73,-14.62 2.61,-5.58 3.92,-11.54 3.92,-17.88l0 -26.79 -165.02 0 0 -11.15c0,-4.09 0.86,-7.94 2.59,-11.56 1.72,-3.63 4.07,-6.8 7.03,-9.52 2.96,-2.72 6.42,-4.85 10.36,-6.39 3.94,-1.54 8.19,-2.31 12.72,-2.31l82.44 0c4.54,0 8.78,0.78 12.73,2.31 3.95,1.54 7.4,3.67 10.36,6.39 2.96,2.72 5.28,5.89 6.96,9.52 1.68,3.63 2.52,7.48 2.52,11.56l17.31 0c0,-6.35 -1.3,-12.29 -3.92,-17.82 -2.11,-4.47 -4.89,-8.46 -8.25,-12.05l43.58 0c-3.33,3.59 -6.09,7.61 -8.2,12.11 -2.61,5.57 -3.92,11.49 -3.92,17.75l0 16.31 17.31 0 0 -16.31c0,-4.09 0.84,-7.94 2.52,-11.56 1.68,-3.63 4,-6.8 6.96,-9.52 2.96,-2.72 6.41,-4.85 10.36,-6.39 3.94,-1.54 8.19,-2.31 12.73,-2.31l82.58 0c4.44,0 8.63,0.78 12.58,2.31 3.94,1.54 7.4,3.67 10.36,6.39 2.96,2.72 5.28,5.89 6.96,9.52 1.67,3.63 2.51,7.48 2.51,11.56 0,4.17 -0.84,8.07 -2.51,11.69 -1.68,3.62 -4,6.8 -6.96,9.52 -2.96,2.72 -6.42,4.87 -10.36,6.46 -3.94,1.59 -8.14,2.38 -12.58,2.38l-132.46 0 0 8.02c0,6.25 1.31,12.17 3.92,17.75 2.61,5.57 6.17,10.44 10.66,14.62 4.49,4.17 9.77,7.46 15.84,9.86 6.07,2.41 12.56,3.6 19.46,3.6l132.46 0 0 -15.91 -132.46 0c-3.85,0 -7.47,-0.52 -10.88,-1.56 -3.41,-1.04 -6.52,-2.54 -9.32,-4.49 -2.81,-1.94 -5.18,-4.28 -7.1,-7 -1.93,-2.72 -3.33,-5.72 -4.22,-8.98l114.11 0c6.8,0 13.25,-1.19 19.31,-3.6 6.07,-2.41 11.37,-5.69 15.92,-9.86 4.53,-4.17 8.11,-9.04 10.72,-14.62 2.62,-5.58 3.93,-11.54 3.93,-17.88 0,-6.26 -1.31,-12.18 -3.93,-17.75 -2.11,-4.5 -4.89,-8.52 -8.25,-12.11l31.92 0 0.57 0.05c5.04,0.35 7.74,1.41 9.48,6.45 1.17,3.39 2.08,5.75 2.93,7.95 1.17,3.03 2.19,5.64 3.61,10.24 0.24,0.78 0.44,1.58 0.66,2.38 0.67,2.61 1.36,5.3 3.16,7.55 2.01,2.52 6.56,4.47 9.99,4.31 5.22,-0.28 8.44,-3.61 9.6,-9.91 0.91,-5.01 1.78,-10.02 2.65,-15.02 0.81,-4.67 1.61,-9.32 2.46,-13.98 2.74,-15.13 5.54,-30.25 8.32,-45.37l0.87 -4.72c1.03,-5.57 2.06,-11.13 3.1,-16.7 1.65,-8.83 3.3,-17.68 4.91,-26.52 1.59,-8.78 3.15,-17.57 4.7,-26.36l3.8 -21.39c1.43,-8 2.84,-16.01 4.33,-24.01 1.22,-6.6 2.48,-13.19 3.79,-20 1.26,16.49 2.51,32.99 3.72,49.5 0.62,8.43 1.21,16.86 1.8,25.3 0.63,9.12 1.27,18.24 1.94,27.36 0.98,13.27 2,26.54 3.02,39.81 0.92,12.04 1.84,24.08 2.74,36.13 0.57,7.61 1.1,15.22 1.63,22.83 0.67,9.48 1.33,18.96 2.06,28.44 0.83,10.7 1.69,21.41 2.55,32.11 1.07,13.2 2.13,26.41 3.12,39.61 0.72,9.65 1.35,19.3 1.97,28.94 0.54,8.37 1.08,16.75 1.69,25.11 1.83,25.3 3.8,51.51 6.03,80.14l0.09 1.19c0.78,10.03 1.58,20.4 3,30.57 0.44,3.17 3.98,6.5 7.01,7.63 1.09,0.4 2.19,0.61 3.28,0.64l0.44 0c1.53,-0.04 3.02,-0.44 4.38,-1.23 3.15,-1.8 5.22,-5.39 5.54,-9.58 0.33,-4.26 0.61,-8.52 0.89,-12.78 0.71,-10.61 1.45,-21.58 2.83,-32.26 1.31,-10.17 2.07,-20.52 2.8,-30.52 0.74,-10.08 1.5,-20.5 2.83,-30.69 1.16,-8.81 1.78,-17.79 2.38,-26.47 0.37,-5.39 0.76,-10.95 1.27,-16.41 1.25,-13.42 2.56,-26.84 3.88,-40.26 1.65,-16.84 3.35,-34.24 4.9,-51.37 1.54,-17 2.96,-34.29 4.33,-51.01 0.74,-8.89 1.46,-17.78 2.22,-26.67 1.78,5.83 3.22,11.36 4.43,16.28 3.57,14.39 7.07,28.78 10.58,43.19l7.25 29.8c1.52,6.28 3.05,12.56 4.58,18.83l0.65 2.69c0.97,4 1.96,8.13 3.1,11.96 0.1,0.35 0.26,0.92 0.46,1.63 2.54,9.15 5.95,20.19 9.75,24.52 1.41,1.59 4.78,3.13 7.96,3.21 0.27,0.05 0.55,0.08 0.83,0.08l397.84 0 0 -16.11 -4.21 0c-0.02,0 -0.04,-0 -0.06,-0zm-1044.78 -124.09l17.31 0 0 -26.79 -17.31 0 0 26.79zm0 140.75l17.31 0 0 -129.7 -17.31 0 0 129.7z"/>
 </g>
</svg>
