<?xml version="1.0" standalone="no"?>
<!DOCTYPE svg PUBLIC "-//W3C//DTD SVG 20010904//EN"
 "http://www.w3.org/TR/2001/REC-SVG-20010904/DTD/svg10.dtd">
<svg version="1.0" xmlns="http://www.w3.org/2000/svg"
 width="1009.000000pt" height="1024.000000pt" viewBox="0 0 1009.000000 1024.000000"
 preserveAspectRatio="xMidYMid meet">
<metadata>
Created by potrace 1.16, written by Peter Selinger 2001-2019
</metadata>
<g transform="translate(0.000000,1024.000000) scale(0.100000,-0.100000)"
fill="#000000" stroke="none">
<path d="M5700 10214 c0 -8 14 -35 31 -60 80 -116 104 -228 75 -343 -43 -167
-146 -272 -413 -419 -77 -42 -241 -156 -318 -219 -29 -24 -41 -29 -47 -20 -4
7 -14 68 -23 136 -39 296 -148 442 -458 606 -81 43 -107 49 -107 24 0 -6 26
-38 59 -72 77 -82 93 -115 99 -209 8 -129 -19 -181 -183 -358 -198 -214 -294
-346 -320 -444 -13 -47 -16 -91 -14 -172 4 -100 7 -114 35 -164 l31 -55 819
-3 c451 -2 856 0 902 3 81 7 82 7 82 33 0 15 -12 51 -25 81 -42 90 -46 125
-24 197 22 72 93 180 235 359 171 216 209 303 185 422 -21 105 -68 174 -107
159 -12 -5 -14 -20 -8 -80 6 -68 4 -80 -19 -128 -36 -73 -145 -207 -224 -274
-73 -61 -112 -89 -118 -83 -2 3 19 40 46 84 108 171 138 256 146 400 12 218
-39 334 -233 532 -80 82 -104 98 -104 67z"/>
<path d="M6520 8382 c-176 -58 -358 -214 -472 -404 -72 -121 -183 -379 -283
-656 -54 -150 -96 -274 -94 -276 2 -1 60 -30 129 -63 417 -202 720 -541 860
-962 141 -425 112 -845 -86 -1246 -83 -169 -173 -294 -309 -430 -136 -136
-261 -226 -430 -310 -259 -129 -523 -185 -800 -172 -238 12 -435 65 -660 177
-455 226 -766 634 -876 1150 -30 138 -33 445 -7 585 101 536 438 979 913 1201
58 27 105 53 105 57 0 10 -227 531 -286 657 -204 430 -576 731 -799 646 -62
-24 -118 -90 -139 -164 -35 -126 -15 -334 49 -512 53 -147 169 -356 258 -465
l25 -30 -131 -135 -132 -136 -90 64 c-106 75 -315 179 -435 217 -283 88 -524
60 -605 -69 -27 -44 -30 -58 -30 -125 1 -58 7 -91 26 -136 90 -216 354 -453
657 -591 52 -23 96 -44 98 -47 3 -2 -7 -45 -21 -94 -15 -50 -34 -131 -44 -179
l-18 -89 -59 5 c-33 3 -135 4 -229 4 -293 -2 -521 -67 -680 -191 -107 -84
-145 -206 -94 -309 57 -119 250 -230 487 -279 76 -16 340 -38 364 -31 7 3 61
7 119 10 l106 6 17 -82 c10 -46 33 -130 52 -187 19 -57 33 -105 32 -105 -2 -1
-28 -13 -58 -26 -180 -79 -368 -209 -497 -343 -141 -147 -205 -269 -207 -393
0 -63 3 -77 30 -120 24 -39 43 -56 95 -83 59 -29 77 -34 170 -38 116 -6 223
10 356 53 112 36 325 142 418 209 44 32 85 58 91 59 6 1 69 -55 140 -124 l129
-125 -67 -100 c-112 -165 -201 -367 -239 -540 -7 -33 -13 -116 -14 -185 0
-124 0 -126 35 -195 26 -51 47 -78 78 -100 40 -28 50 -30 130 -30 80 0 93 3
164 38 211 103 431 354 558 637 19 41 36 78 40 82 3 4 41 -4 85 -18 44 -14
132 -37 195 -50 63 -14 115 -26 116 -27 1 -1 -2 -29 -7 -62 -27 -214 9 -518
84 -704 54 -132 143 -247 222 -282 93 -42 205 -11 286 79 152 169 239 526 209
864 -6 67 -9 122 -8 123 2 1 39 9 83 20 72 16 225 62 266 79 12 5 19 -3 29
-35 23 -67 126 -245 199 -343 117 -156 274 -293 398 -347 67 -30 197 -38 244
-14 92 46 137 131 146 275 15 233 -99 548 -298 825 l-31 43 100 98 c54 55 119
122 143 151 l44 52 80 -55 c340 -235 741 -331 952 -229 160 78 163 274 9 489
-119 166 -381 365 -597 452 -59 24 -69 32 -66 49 3 11 16 63 31 115 14 52 32
131 39 175 l14 80 34 -2 c152 -10 394 -4 484 12 219 38 374 105 475 205 71 70
90 111 90 191 -1 164 -225 317 -550 375 -104 18 -354 24 -481 11 l-77 -8 -17
73 c-10 40 -35 124 -57 187 -21 62 -38 114 -36 115 2 1 32 15 68 30 296 128
570 368 667 584 37 83 43 195 14 255 -45 93 -147 137 -312 137 -250 0 -532
-110 -812 -316 l-37 -27 -83 79 c-45 44 -103 98 -130 121 -41 35 -45 42 -32
53 28 24 136 192 185 290 100 200 145 368 144 540 -1 124 -14 175 -60 241 -54
78 -173 108 -284 71z"/>
<path d="M4065 8345 c-19 -18 -25 -35 -25 -65 0 -30 6 -47 25 -65 l24 -25 976
0 976 0 24 25 c19 18 25 35 25 65 0 30 -6 47 -25 65 l-24 25 -976 0 -976 0
-24 -25z"/>
<path d="M4206 8069 c-47 -55 -25 -130 43 -149 27 -7 302 -10 848 -8 872 3
837 1 862 55 17 38 13 69 -15 102 l-26 31 -843 0 -843 0 -26 -31z"/>
<path d="M4404 7833 c-67 -13 -92 -110 -41 -160 l27 -28 680 0 680 0 26 27
c37 37 37 99 0 136 l-26 27 -663 1 c-364 1 -672 0 -683 -3z"/>
<path d="M4539 7493 c26 -38 53 -78 60 -90 17 -32 39 -152 51 -278 22 -232 81
-1235 105 -1785 13 -316 34 -753 45 -970 25 -465 14 -433 147 -446 165 -15
427 13 449 48 9 13 17 168 39 678 8 206 17 384 20 395 2 11 9 205 15 430 17
670 50 1621 60 1755 9 121 11 128 58 221 l48 96 -80 7 c-45 3 -303 6 -574 6
l-492 0 49 -67z m631 -415 c0 -117 -5 -370 -10 -563 -5 -192 -14 -548 -20
-790 -6 -242 -15 -478 -20 -523 -9 -91 -23 -121 -38 -81 -15 38 -45 950 -58
1752 l-7 417 76 0 77 0 0 -212z"/>
<path d="M5030 2101 c-19 -4 -50 -16 -68 -26 l-32 -19 0 -116 c0 -216 20 -735
30 -786 15 -73 58 -111 138 -124 69 -12 130 -2 193 30 49 25 65 50 78 123 14
75 24 697 14 807 -8 81 -9 85 -38 99 -34 16 -257 25 -315 12z"/>
</g>
</svg>
