<?xml version="1.0" standalone="no"?>
<!DOCTYPE svg PUBLIC "-//W3C//DTD SVG 20010904//EN"
 "http://www.w3.org/TR/2001/REC-SVG-20010904/DTD/svg10.dtd">
<svg version="1.0" xmlns="http://www.w3.org/2000/svg"
 width="256.000000pt" height="256.000000pt" viewBox="0 0 256.000000 256.000000"
 preserveAspectRatio="xMidYMid meet">
<metadata>
Created by potrace 1.16, written by Peter Selinger 2001-2019
</metadata>
<g transform="translate(0.000000,256.000000) scale(0.100000,-0.100000)"
fill="#000000" stroke="none">
<path d="M1500 2538 c0 -44 -50 -102 -145 -169 -52 -37 -96 -64 -99 -61 -3 3
-6 19 -6 35 0 74 -50 161 -111 193 l-30 15 17 -32 c25 -49 14 -100 -38 -165
-87 -113 -98 -134 -98 -194 0 -30 4 -61 8 -68 7 -9 67 -12 268 -10 289 3 262
-4 247 69 -6 30 16 74 82 168 34 47 45 72 45 100 0 53 -16 71 -23 26 -9 -54
-95 -161 -114 -141 -2 2 5 22 16 45 46 90 48 203 3 209 -17 3 -22 -2 -22 -20z"/>
<path d="M1674 2031 c-68 -41 -131 -148 -178 -302 -28 -91 -30 -84 39 -121 59
-31 166 -144 203 -215 95 -180 95 -416 0 -596 -49 -93 -149 -189 -244 -235
-78 -37 -80 -37 -205 -37 l-125 0 -78 39 c-135 66 -244 200 -289 355 -25 88
-27 251 -3 341 38 139 133 271 245 340 29 18 50 38 48 44 -99 248 -112 272
-177 335 -77 75 -137 76 -161 3 -21 -64 14 -200 77 -295 l25 -38 -43 -49 c-40
-46 -44 -48 -63 -35 -62 46 -100 66 -159 85 -55 18 -71 20 -100 10 -45 -15
-60 -34 -59 -76 2 -71 93 -178 189 -223 34 -16 44 -26 40 -39 -3 -9 -10 -36
-15 -60 -5 -24 -12 -46 -14 -49 -3 -3 -41 -6 -84 -7 -43 -1 -96 -8 -118 -15
-137 -45 -151 -147 -28 -206 48 -23 73 -28 147 -29 l89 -2 15 -58 c7 -31 11
-63 9 -71 -3 -7 -22 -21 -42 -31 -50 -23 -128 -100 -154 -151 -47 -93 -11
-149 90 -140 56 5 137 40 195 83 17 13 33 24 35 24 3 0 22 -21 43 -46 l38 -45
-31 -62 c-93 -183 -76 -343 33 -307 50 16 123 96 163 178 27 54 40 71 52 67 8
-3 35 -13 60 -21 l46 -15 1 -87 c1 -143 50 -262 109 -262 62 0 115 130 115
283 l0 74 56 18 c30 9 57 16 58 14 2 -2 18 -33 35 -67 51 -101 135 -182 190
-182 11 0 29 9 40 21 43 46 32 150 -29 275 l-41 85 42 52 c23 29 45 51 50 50
5 -2 30 -18 56 -37 88 -61 212 -84 258 -46 26 21 19 90 -14 142 -30 47 -114
121 -161 142 -34 15 -39 24 -30 60 5 17 11 47 14 67 l6 36 53 -5 c113 -9 240
39 261 100 29 82 -81 151 -240 150 l-81 0 -11 47 c-6 25 -14 55 -18 67 -5 18
3 26 48 51 65 38 132 104 158 158 25 52 25 76 1 106 -17 21 -28 24 -83 23 -69
-1 -138 -29 -208 -84 l-38 -30 -41 45 -42 46 19 27 c51 73 94 233 78 295 -14
57 -65 73 -122 38z"/>
<path d="M974 2029 c-9 -16 6 -27 41 -30 17 -1 148 -1 293 -1 255 2 262 3 262
22 0 20 -7 20 -294 20 -202 0 -297 -3 -302 -11z"/>
<path d="M1027 1954 c-4 -4 -7 -16 -7 -26 0 -17 14 -18 256 -18 l255 0 -3 23
-3 22 -246 3 c-135 1 -248 -1 -252 -4z"/>
<path d="M1070 1855 c-10 -12 -10 -18 0 -30 10 -12 45 -15 199 -15 102 0 192
4 199 9 8 5 12 17 10 27 -3 18 -17 19 -199 22 -166 2 -198 0 -209 -13z"/>
<path d="M1213 1712 c-17 -9 -42 -30 -55 -47 -23 -29 -23 -30 -25 -382 -2
-241 0 -353 8 -353 20 0 68 30 88 56 20 26 21 37 21 363 0 288 2 340 16 359
14 20 14 22 -3 22 -10 -1 -32 -9 -50 -18z"/>
<path d="M1613 964 l-20 -27 -82 13 c-97 16 -200 5 -271 -29 -52 -24 -220
-148 -220 -162 0 -5 19 4 42 21 22 16 48 30 57 30 9 0 27 7 40 16 51 36 260
33 322 -5 19 -12 36 -21 40 -21 8 0 122 180 116 186 -2 3 -13 -7 -24 -22z"/>
</g>
</svg>
