<?xml version="1.0" standalone="no"?>
<!DOCTYPE svg PUBLIC "-//W3C//DTD SVG 20010904//EN"
 "http://www.w3.org/TR/2001/REC-SVG-20010904/DTD/svg10.dtd">
<svg version="1.0" xmlns="http://www.w3.org/2000/svg"
 width="256.000000pt" height="256.000000pt" viewBox="0 0 256.000000 256.000000"
 preserveAspectRatio="xMidYMid meet">
<metadata>
Created by potrace 1.16, written by Peter Selinger 2001-2019
</metadata>
<g transform="translate(0.000000,256.000000) scale(0.100000,-0.100000)"
fill="#000000" stroke="none">
<path d="M1524 2525 c9 -16 16 -39 16 -49 0 -34 -39 -100 -73 -124 -45 -32
-187 -122 -191 -122 -3 0 -7 19 -11 43 -12 76 -26 105 -68 141 -23 20 -50 43
-60 52 -27 23 -33 9 -8 -22 25 -32 27 -80 4 -114 -9 -14 -38 -49 -65 -77 -75
-81 -105 -163 -78 -214 10 -18 24 -19 296 -19 278 0 284 0 274 19 -24 47 -7
97 65 186 45 56 58 84 57 124 -2 42 -22 68 -22 28 0 -15 -12 -45 -26 -67 -27
-40 -91 -96 -100 -87 -3 3 6 22 20 44 57 86 53 193 -10 254 l-35 34 15 -30z"/>
<path d="M983 1984 c-18 -8 -16 -41 3 -48 20 -8 588 -8 608 0 24 9 19 41 -6
47 -29 7 -589 8 -605 1z"/>
<path d="M1027 1893 c-4 -3 -7 -15 -7 -25 0 -17 15 -18 276 -18 l275 0 -3 23
-3 22 -266 3 c-146 1 -268 -1 -272 -5z"/>
<path d="M1061 1796 c-24 -28 51 -38 256 -34 105 1 195 6 198 10 4 4 5 14 2
23 -9 22 -438 23 -456 1z"/>
<path d="M1120 1721 c0 -5 6 -14 14 -20 19 -16 26 -51 31 -148 3 -43 9 -139
15 -213 5 -74 14 -231 19 -349 l10 -214 35 -29 c20 -16 36 -36 36 -44 0 -21 8
-17 41 21 17 19 42 38 54 41 21 5 24 13 29 87 3 45 10 244 16 441 8 256 15
369 25 391 l13 32 -61 7 c-89 9 -277 7 -277 -3z m206 -258 c-4 -104 -7 -249
-6 -325 2 -141 -4 -198 -22 -198 -7 0 -8 17 -3 46 4 27 3 49 -3 53 -5 3 -13
135 -17 309 l-7 302 32 0 33 0 -7 -187z"/>
<path d="M2119 1513 c-9 -20 -365 -235 -394 -238 -81 -7 -132 -69 -122 -147 4
-30 0 -45 -23 -76 -15 -22 -44 -49 -63 -61 -48 -30 -67 -78 -54 -142 6 -29 3
-45 -14 -73 -11 -20 -28 -36 -35 -36 -57 0 -111 -75 -100 -138 4 -26 0 -45
-15 -69 -25 -40 -32 -41 -47 -7 -8 17 -9 31 -2 44 15 28 12 87 -5 120 -9 17
-33 39 -55 50 -47 24 -71 66 -77 134 -2 28 -11 61 -19 74 -19 28 -72 62 -99
62 -26 0 -49 54 -35 81 18 32 12 104 -11 133 -26 32 -69 56 -104 56 -16 0 -81
35 -163 86 -212 134 -233 147 -236 143 -13 -16 -126 -218 -126 -225 0 -5 41
-50 91 -99 122 -120 136 -157 86 -218 -21 -24 -30 -26 -166 -36 -79 -6 -146
-12 -148 -14 -9 -9 -14 -206 -6 -247 l8 -45 105 -12 c239 -27 211 -19 234 -67
13 -28 23 -34 58 -40 65 -10 265 -77 294 -98 6 -5 18 0 28 11 16 17 15 22 -24
80 -62 93 -81 158 -81 271 0 69 6 114 21 165 12 39 24 72 26 74 2 2 12 -7 23
-20 18 -22 18 -26 4 -53 -31 -60 10 -156 75 -173 28 -7 62 -70 62 -117 0 -72
40 -131 96 -142 44 -8 76 -69 67 -130 -14 -106 85 -175 184 -127 42 20 65 66
62 127 -3 53 27 106 76 134 18 11 41 32 50 46 19 29 22 94 5 126 -15 28 21 80
56 80 14 0 40 15 62 34 34 32 37 39 38 93 1 67 21 117 35 91 41 -74 51 -254
19 -349 -21 -61 -30 -80 -78 -152 -23 -35 -24 -39 -9 -54 14 -15 22 -13 94 15
43 17 92 32 108 34 17 2 33 7 36 11 3 4 33 13 66 19 55 10 62 15 77 45 9 18
26 37 38 42 13 4 85 14 161 21 l137 13 0 148 0 147 -62 6 c-35 3 -101 9 -148
14 -81 7 -85 8 -107 41 -39 58 -33 73 82 191 58 59 105 110 105 113 0 13 -138
238 -141 230z m-1196 -293 c31 -35 35 -75 12 -120 -29 -57 -102 -68 -153 -25
-38 32 -48 72 -28 119 29 70 116 83 169 26z m858 20 c23 -13 49 -61 49 -92 -1
-35 -23 -69 -66 -97 -55 -38 -78 -82 -78 -154 -1 -52 -4 -62 -29 -83 -41 -35
-75 -40 -116 -18 -80 43 -79 118 3 188 61 51 90 103 80 141 -15 62 34 125 98
125 22 0 48 -5 59 -10z m-722 -284 c18 -18 26 -41 31 -84 9 -75 36 -131 69
-143 14 -6 38 -22 54 -37 37 -35 38 -102 3 -137 -68 -68 -176 -27 -176 67 0
64 -41 145 -82 163 -62 25 -87 77 -67 135 25 69 115 88 168 36z m452 -265 c21
-22 29 -39 29 -66 0 -48 -13 -70 -59 -100 -58 -36 -86 -88 -86 -158 0 -54 -3
-61 -34 -89 -29 -26 -39 -30 -74 -25 -53 7 -87 42 -94 96 -6 41 -4 43 59 104
80 77 104 113 88 133 -20 23 -3 80 31 108 44 37 101 36 140 -3z"/>
<path d="M455 359 c-4 -11 -5 -22 -3 -24 1 -1 48 -10 103 -19 125 -20 354 -63
380 -71 13 -4 11 -1 -5 8 -44 26 -411 127 -459 127 -5 0 -13 -9 -16 -21z"/>
<path d="M2020 364 c-36 -8 -76 -16 -90 -17 -14 -1 -27 -4 -30 -7 -3 -3 -62
-23 -132 -44 -71 -22 -128 -43 -128 -48 0 -5 5 -6 10 -3 11 7 141 32 340 65
140 24 140 24 133 49 -6 24 -15 25 -103 5z"/>
<path d="M416 254 c-3 -9 -6 -19 -6 -24 0 -11 123 -20 325 -24 171 -3 170 -3
-92 38 -201 30 -219 31 -227 10z"/>
<path d="M1960 250 c-63 -10 -151 -25 -195 -33 l-80 -14 160 3 c250 6 328 13
321 31 -3 8 -6 19 -6 24 0 13 -69 9 -200 -11z"/>
<path d="M1205 131 c-37 -20 -55 -21 -370 -21 -181 1 -348 4 -370 9 -51 9 -65
-3 -65 -58 l0 -40 418 -5 c506 -7 438 -7 945 0 l417 5 0 45 c0 35 -4 44 -17
45 -10 0 -186 0 -391 -1 -344 -1 -375 0 -393 16 -31 28 -125 30 -174 5z"/>
</g>
</svg>
